<svg width="32" height="32" viewBox="0 0 32 32" fill="none" xmlns="http://www.w3.org/2000/svg">
<path fill-rule="evenodd" clip-rule="evenodd" d="M24.27 3.2H6.4C5.55131 3.2 4.73737 3.53714 4.13726 4.13726C3.53714 4.73737 3.2 5.55131 3.2 6.4V25.6C3.2 26.4487 3.53714 27.2626 4.13726 27.8627C4.73737 28.4629 5.55131 28.8 6.4 28.8H25.6C26.4487 28.8 27.2626 28.4629 27.8627 27.8627C28.4629 27.2626 28.8 26.4487 28.8 25.6V8.2L24.27 3.2ZM22.4 12.8C22.4 13.68 21.68 14.4 20.8 14.4H11.2C10.7757 14.4 10.3687 14.2314 10.0686 13.9314C9.76857 13.6313 9.6 13.2243 9.6 12.8V4.8H22.4V12.8ZM20.8 6.4H17.6V12.8H20.8V6.4ZM14.9038 19.5251L17.0251 17.4038L19.5 19.8787L21.9749 17.4038L24.0962 19.5251L21.6213 22L24.0962 24.4749L21.9749 26.5962L19.5 24.1213L17.0251 26.5962L14.9038 24.4749L17.3787 22L14.9038 19.5251Z" fill="currentColor    "/>
</svg>
