<svg width="32" height="32" viewBox="0 0 32 32" fill="none" xmlns="http://www.w3.org/2000/svg">
<rect x="14" y="1" width="4" height="10" rx="1" fill="currentColor"/>
<path fill-rule="evenodd" clip-rule="evenodd" d="M18 4.01034C18 3.51697 17.6404 3.09311 17.1489 3.05007C16.7704 3.01692 16.3872 3 16 3C15.6128 3 15.2296 3.01692 14.8511 3.05007C14.3596 3.09311 14 3.51697 14 4.01034V5.97068C14 6.61226 14.5973 7.08561 15.2366 7.03192C15.4883 7.01078 15.7429 7 16 7C16.2571 7 16.5117 7.01078 16.7634 7.03192C17.4027 7.08561 18 6.61226 18 5.97068V4.01034ZM20 7.3158C20 7.69545 20.2175 8.03826 20.545 8.23027C23.2103 9.79272 25 12.6874 25 16C25 20.9706 20.9706 25 16 25C11.0294 25 7 20.9706 7 16C7 12.6874 8.78971 9.79272 11.455 8.23027C11.7825 8.03826 12 7.69545 12 7.3158V5.00093C12 4.32227 11.3373 3.84214 10.7173 4.1182C6.17016 6.14291 3 10.7012 3 16C3 23.1797 8.8203 29 16 29C23.1797 29 29 23.1797 29 16C29 10.7012 25.8298 6.14291 21.2827 4.1182C20.6627 3.84214 20 4.32227 20 5.00093V7.3158Z" fill="#D9D9D9"/>
</svg>
